# xmcd
#
# Track frame offsets:
#	150
#	15687
#	24907
#	41235
#	54245
#	69002
#	84122
#	98702
#	111147
#	130650
#	146135
#
# Disc length: 2095 seconds
#
# Revision: 1
# Processed by: cddbd v1.5.1PL2 Copyright (c) Steve Scherf et al.
# Submitted via: audiograbber 1.83.01
#
DISCID=80082d0b
DTITLE=Rick Sousley - Patsy Proof
DYEAR=2004
DGENRE=Country
TTITLE0=Patsy Proof
TTITLE1=1100 Springs
TTITLE2=Mamas Place
TTITLE3=Little Bird
TTITLE4=16 Bars From Luckenbach
TTITLE5=Climbing The Walls
TTITLE6=She's Done A 180
TTITLE7=Ain't Your Memory
TTITLE8=Let Him Walk You Home To Me
TTITLE9=Fear Of Flying
TTITLE10=Mr. Whiskey
EXTD=
EXTT0=
EXTT1=
EXTT2=
EXTT3=
EXTT4=
EXTT5=
EXTT6=
EXTT7=
EXTT8=
EXTT9=
EXTT10=
PLAYORDER=
